<?xml version="1.0" encoding="UTF-8" standalone="no"?>
<!-- Created with Inkscape (http://www.inkscape.org/) -->

<svg
   width="210mm"
   height="297mm"
   viewBox="0 0 210 297"
   version="1.1"
   id="svg5"
   inkscape:version="1.1.2 (0a00cf5339, 2022-02-04, custom)"
   sodipodi:docname="v1.svg"
   xmlns:inkscape="http://www.inkscape.org/namespaces/inkscape"
   xmlns:sodipodi="http://sodipodi.sourceforge.net/DTD/sodipodi-0.dtd"
   xmlns="http://www.w3.org/2000/svg"
   xmlns:svg="http://www.w3.org/2000/svg">
  <sodipodi:namedview
     id="namedview7"
     pagecolor="#505050"
     bordercolor="#eeeeee"
     borderopacity="1"
     inkscape:pageshadow="0"
     inkscape:pageopacity="0"
     inkscape:pagecheckerboard="0"
     inkscape:document-units="mm"
     showgrid="false"
     inkscape:zoom="1.1300912"
     inkscape:cx="353.51131"
     inkscape:cy="599.9516"
     inkscape:window-width="1920"
     inkscape:window-height="1057"
     inkscape:window-x="-8"
     inkscape:window-y="-8"
     inkscape:window-maximized="1"
     inkscape:current-layer="layer1" />
  <defs
     id="defs2" />
  <g
     inkscape:label="Layer 1"
     inkscape:groupmode="layer"
     id="layer1">
    <path
       id="path1084"
       style="fill:#000000;stroke-width:43.0866"
       d="M 253.14844 326.60742 L 353.72852 563.2168 C 363.42813 561.55198 373.38392 560.63482 383.55859 560.63477 C 392.93272 560.64978 402.16948 561.46651 411.23047 562.92969 L 511.68945 326.60742 L 438.23047 326.60742 L 382.41797 457.90234 L 326.60547 326.60742 L 253.14844 326.60742 z M 411.23047 562.92969 L 382.41797 630.70703 L 353.72852 563.2168 C 271.18729 577.384 208.36178 649.24814 208.36133 735.83203 C 208.36075 832.59136 286.79926 911.03075 383.55859 911.03125 C 452.23956 911.01242 514.57522 870.86466 543 808.3418 L 467.02344 797.87891 C 447.15051 824.71341 415.60037 840.62839 381.98828 840.77344 C 323.4394 840.77367 275.97658 793.7895 275.97656 735.83203 C 275.97658 677.87456 323.4394 630.8904 381.98828 630.89062 C 417.04461 631.04554 449.75558 648.34705 469.37305 677.10742 L 544.47461 667.20312 C 520.6734 611.299 469.96066 572.41352 411.23047 562.92969 z "
       transform="scale(0.26458333)" />
  </g>
</svg>
