<?xml version="1.0" encoding="UTF-8" standalone="no"?>
<!-- Created with Inkscape (http://www.inkscape.org/) -->

<svg
   width="88.92997mm"
   height="154.6288mm"
   viewBox="0 0 88.92997 154.6288"
   version="1.1"
   id="svg5"
   inkscape:version="1.2 (dc2aedaf03, 2022-05-15)"
   sodipodi:docname="v4.svg"
   xmlns:inkscape="http://www.inkscape.org/namespaces/inkscape"
   xmlns:sodipodi="http://sodipodi.sourceforge.net/DTD/sodipodi-0.dtd"
   xmlns:xlink="http://www.w3.org/1999/xlink"
   xmlns="http://www.w3.org/2000/svg"
   xmlns:svg="http://www.w3.org/2000/svg">
  <sodipodi:namedview
     id="namedview7"
     pagecolor="#505050"
     bordercolor="#eeeeee"
     borderopacity="1"
     inkscape:pageshadow="0"
     inkscape:pageopacity="0"
     inkscape:pagecheckerboard="0"
     inkscape:document-units="mm"
     showgrid="false"
     inkscape:zoom="1.1300912"
     inkscape:cx="115.47741"
     inkscape:cy="330.94674"
     inkscape:window-width="1920"
     inkscape:window-height="1057"
     inkscape:window-x="-8"
     inkscape:window-y="-8"
     inkscape:window-maximized="1"
     inkscape:current-layer="layer1"
     inkscape:showpageshadow="0"
     inkscape:deskcolor="#505050" />
  <defs
     id="defs2">
    <linearGradient
       inkscape:collect="always"
       id="linearGradient987">
      <stop
         style="stop-color:#ffffff;stop-opacity:1;"
         offset="0"
         id="stop983" />
      <stop
         style="stop-color:#000000;stop-opacity:1;"
         offset="1"
         id="stop985" />
    </linearGradient>
    <linearGradient
       inkscape:collect="always"
       xlink:href="#linearGradient987"
       id="linearGradient989"
       x1="209.32916"
       y1="329.32391"
       x2="544.25342"
       y2="910.38873"
       gradientUnits="userSpaceOnUse" />
  </defs>
  <g
     inkscape:label="Layer 1"
     inkscape:groupmode="layer"
     id="layer1"
     transform="translate(-55.128935,-86.414879)">
    <path
       id="path1084"
       style="fill:url(#linearGradient989);stroke-width:43.0866;fill-opacity:1;opacity:1"
       d="M 253.14844,326.60742 353.72852,563.2168 c 9.69961,-1.66482 19.6554,-2.58198 29.83007,-2.58203 9.37413,0.015 18.61089,0.83174 27.67188,2.29492 L 511.68945,326.60742 h -73.45898 l -55.8125,131.29492 -55.8125,-131.29492 z m 158.08203,236.32227 -28.8125,67.77734 -28.68945,-67.49023 c -82.54123,14.1672 -145.36674,86.03134 -145.36719,172.61523 -5.8e-4,96.75933 78.43793,175.19872 175.19726,175.19922 C 452.23956,911.01242 514.57522,870.86466 543,808.3418 l -75.97656,-10.46289 c -19.87293,26.8345 -51.42307,42.74948 -85.03516,42.89453 -58.54888,2.3e-4 -106.0117,-46.98394 -106.01172,-104.94141 2e-5,-57.95747 47.46284,-104.94163 106.01172,-104.94141 35.05633,0.15492 67.7673,17.45643 87.38477,46.2168 l 75.10156,-9.9043 C 520.6734,611.299 469.96066,572.41352 411.23047,562.92969 Z"
       transform="scale(0.26458333)" />
    <path
       style="fill:#000000;stroke-width:10.0877;fill-opacity:1"
       d="m 172.14024,298.20603 c -5.75574,-13.16624 -25.69188,-60.32412 -25.69188,-60.7728 0,-2.73228 46.93542,-3.55483 53.81553,-0.94312 1.60823,0.61049 0.76916,2.93459 -11.41927,31.62985 -7.23527,17.03403 -13.51844,31.76735 -13.96262,32.74073 -0.7093,1.55439 -1.04297,1.23132 -2.74176,-2.65466 z"
       id="path2575"
       transform="matrix(0.26458333,0,0,0.26458333,55.128935,86.414879)" />
  </g>
</svg>
